<svg xmlns="http://www.w3.org/2000/svg" width="512" height="512" viewBox="0 0 512 512">
  <defs>
    <linearGradient id="g" x1="0" y1="0" x2="1" y2="1">
      <stop offset="0" stop-color="hsl(200, 35%, 48%)"/>
      <stop offset="1" stop-color="hsl(230, 25%, 20%)"/>
    </linearGradient>
    <filter id="blur"><feGaussianBlur stdDeviation="1.4"/></filter>
  </defs>
  <rect width="512" height="512" fill="url(#g)" filter="url(#blur)"/>
  <rect x="0" y="0" width="32" height="32" fill="rgba(255,255,255,0)"/><rect x="0" y="32" width="32" height="32" fill="rgba(255,255,255,0.05)"/><rect x="0" y="64" width="32" height="32" fill="rgba(255,255,255,0)"/><rect x="0" y="96" width="32" height="32" fill="rgba(255,255,255,0.05)"/><rect x="0" y="128" width="32" height="32" fill="rgba(255,255,255,0)"/><rect x="0" y="160" width="32" height="32" fill="rgba(255,255,255,0.05)"/><rect x="0" y="192" width="32" height="32" fill="rgba(255,255,255,0)"/><rect x="0" y="224" width="32" height="32" fill="rgba(255,255,255,0.05)"/><rect x="0" y="256" width="32" height="32" fill="rgba(255,255,255,0)"/><rect x="0" y="288" width="32" height="32" fill="rgba(255,255,255,0.05)"/><rect x="0" y="320" width="32" height="32" fill="rgba(255,255,255,0)"/><rect x="0" y="352" width="32" height="32" fill="rgba(255,255,255,0.05)"/><rect x="0" y="384" width="32" height="32" fill="rgba(255,255,255,0)"/><rect x="0" y="416" width="32" height="32" fill="rgba(255,255,255,0.05)"/><rect x="0" y="448" width="32" height="32" fill="rgba(255,255,255,0)"/><rect x="0" y="480" width="32" height="32" fill="rgba(255,255,255,0.05)"/><rect x="32" y="0" width="32" height="32" fill="rgba(255,255,255,0.05)"/><rect x="32" y="32" width="32" height="32" fill="rgba(255,255,255,0)"/><rect x="32" y="64" width="32" height="32" fill="rgba(255,255,255,0.05)"/><rect x="32" y="96" width="32" height="32" fill="rgba(255,255,255,0)"/><rect x="32" y="128" width="32" height="32" fill="rgba(255,255,255,0.05)"/><rect x="32" y="160" width="32" height="32" fill="rgba(255,255,255,0)"/><rect x="32" y="192" width="32" height="32" fill="rgba(255,255,255,0.05)"/><rect x="32" y="224" width="32" height="32" fill="rgba(255,255,255,0)"/><rect x="32" y="256" width="32" height="32" fill="rgba(255,255,255,0.05)"/><rect x="32" y="288" width="32" height="32" fill="rgba(255,255,255,0)"/><rect x="32" y="320" width="32" height="32" fill="rgba(255,255,255,0.05)"/><rect x="32" y="352" width="32" height="32" fill="rgba(255,255,255,0)"/><rect x="32" y="384" width="32" height="32" fill="rgba(255,255,255,0.05)"/><rect x="32" y="416" width="32" height="32" fill="rgba(255,255,255,0)"/><rect x="32" y="448" width="32" height="32" fill="rgba(255,255,255,0.05)"/><rect x="32" y="480" width="32" height="32" fill="rgba(255,255,255,0)"/><rect x="64" y="0" width="32" height="32" fill="rgba(255,255,255,0)"/><rect x="64" y="32" width="32" height="32" fill="rgba(255,255,255,0.05)"/><rect x="64" y="64" width="32" height="32" fill="rgba(255,255,255,0)"/><rect x="64" y="96" width="32" height="32" fill="rgba(255,255,255,0.05)"/><rect x="64" y="128" width="32" height="32" fill="rgba(255,255,255,0)"/><rect x="64" y="160" width="32" height="32" fill="rgba(255,255,255,0.05)"/><rect x="64" y="192" width="32" height="32" fill="rgba(255,255,255,0)"/><rect x="64" y="224" width="32" height="32" fill="rgba(255,255,255,0.05)"/><rect x="64" y="256" width="32" height="32" fill="rgba(255,255,255,0)"/><rect x="64" y="288" width="32" height="32" fill="rgba(255,255,255,0.05)"/><rect x="64" y="320" width="32" height="32" fill="rgba(255,255,255,0)"/><rect x="64" y="352" width="32" height="32" fill="rgba(255,255,255,0.05)"/><rect x="64" y="384" width="32" height="32" fill="rgba(255,255,255,0)"/><rect x="64" y="416" width="32" height="32" fill="rgba(255,255,255,0.05)"/><rect x="64" y="448" width="32" height="32" fill="rgba(255,255,255,0)"/><rect x="64" y="480" width="32" height="32" fill="rgba(255,255,255,0.05)"/><rect x="96" y="0" width="32" height="32" fill="rgba(255,255,255,0.05)"/><rect x="96" y="32" width="32" height="32" fill="rgba(255,255,255,0)"/><rect x="96" y="64" width="32" height="32" fill="rgba(255,255,255,0.05)"/><rect x="96" y="96" width="32" height="32" fill="rgba(255,255,255,0)"/><rect x="96" y="128" width="32" height="32" fill="rgba(255,255,255,0.05)"/><rect x="96" y="160" width="32" height="32" fill="rgba(255,255,255,0)"/><rect x="96" y="192" width="32" height="32" fill="rgba(255,255,255,0.05)"/><rect x="96" y="224" width="32" height="32" fill="rgba(255,255,255,0)"/><rect x="96" y="256" width="32" height="32" fill="rgba(255,255,255,0.05)"/><rect x="96" y="288" width="32" height="32" fill="rgba(255,255,255,0)"/><rect x="96" y="320" width="32" height="32" fill="rgba(255,255,255,0.05)"/><rect x="96" y="352" width="32" height="32" fill="rgba(255,255,255,0)"/><rect x="96" y="384" width="32" height="32" fill="rgba(255,255,255,0.05)"/><rect x="96" y="416" width="32" height="32" fill="rgba(255,255,255,0)"/><rect x="96" y="448" width="32" height="32" fill="rgba(255,255,255,0.05)"/><rect x="96" y="480" width="32" height="32" fill="rgba(255,255,255,0)"/><rect x="128" y="0" width="32" height="32" fill="rgba(255,255,255,0)"/><rect x="128" y="32" width="32" height="32" fill="rgba(255,255,255,0.05)"/><rect x="128" y="64" width="32" height="32" fill="rgba(255,255,255,0)"/><rect x="128" y="96" width="32" height="32" fill="rgba(255,255,255,0.05)"/><rect x="128" y="128" width="32" height="32" fill="rgba(255,255,255,0)"/><rect x="128" y="160" width="32" height="32" fill="rgba(255,255,255,0.05)"/><rect x="128" y="192" width="32" height="32" fill="rgba(255,255,255,0)"/><rect x="128" y="224" width="32" height="32" fill="rgba(255,255,255,0.05)"/><rect x="128" y="256" width="32" height="32" fill="rgba(255,255,255,0)"/><rect x="128" y="288" width="32" height="32" fill="rgba(255,255,255,0.05)"/><rect x="128" y="320" width="32" height="32" fill="rgba(255,255,255,0)"/><rect x="128" y="352" width="32" height="32" fill="rgba(255,255,255,0.05)"/><rect x="128" y="384" width="32" height="32" fill="rgba(255,255,255,0)"/><rect x="128" y="416" width="32" height="32" fill="rgba(255,255,255,0.05)"/><rect x="128" y="448" width="32" height="32" fill="rgba(255,255,255,0)"/><rect x="128" y="480" width="32" height="32" fill="rgba(255,255,255,0.05)"/><rect x="160" y="0" width="32" height="32" fill="rgba(255,255,255,0.05)"/><rect x="160" y="32" width="32" height="32" fill="rgba(255,255,255,0)"/><rect x="160" y="64" width="32" height="32" fill="rgba(255,255,255,0.05)"/><rect x="160" y="96" width="32" height="32" fill="rgba(255,255,255,0)"/><rect x="160" y="128" width="32" height="32" fill="rgba(255,255,255,0.05)"/><rect x="160" y="160" width="32" height="32" fill="rgba(255,255,255,0)"/><rect x="160" y="192" width="32" height="32" fill="rgba(255,255,255,0.05)"/><rect x="160" y="224" width="32" height="32" fill="rgba(255,255,255,0)"/><rect x="160" y="256" width="32" height="32" fill="rgba(255,255,255,0.05)"/><rect x="160" y="288" width="32" height="32" fill="rgba(255,255,255,0)"/><rect x="160" y="320" width="32" height="32" fill="rgba(255,255,255,0.05)"/><rect x="160" y="352" width="32" height="32" fill="rgba(255,255,255,0)"/><rect x="160" y="384" width="32" height="32" fill="rgba(255,255,255,0.05)"/><rect x="160" y="416" width="32" height="32" fill="rgba(255,255,255,0)"/><rect x="160" y="448" width="32" height="32" fill="rgba(255,255,255,0.05)"/><rect x="160" y="480" width="32" height="32" fill="rgba(255,255,255,0)"/><rect x="192" y="0" width="32" height="32" fill="rgba(255,255,255,0)"/><rect x="192" y="32" width="32" height="32" fill="rgba(255,255,255,0.05)"/><rect x="192" y="64" width="32" height="32" fill="rgba(255,255,255,0)"/><rect x="192" y="96" width="32" height="32" fill="rgba(255,255,255,0.05)"/><rect x="192" y="128" width="32" height="32" fill="rgba(255,255,255,0)"/><rect x="192" y="160" width="32" height="32" fill="rgba(255,255,255,0.05)"/><rect x="192" y="192" width="32" height="32" fill="rgba(255,255,255,0)"/><rect x="192" y="224" width="32" height="32" fill="rgba(255,255,255,0.05)"/><rect x="192" y="256" width="32" height="32" fill="rgba(255,255,255,0)"/><rect x="192" y="288" width="32" height="32" fill="rgba(255,255,255,0.05)"/><rect x="192" y="320" width="32" height="32" fill="rgba(255,255,255,0)"/><rect x="192" y="352" width="32" height="32" fill="rgba(255,255,255,0.05)"/><rect x="192" y="384" width="32" height="32" fill="rgba(255,255,255,0)"/><rect x="192" y="416" width="32" height="32" fill="rgba(255,255,255,0.05)"/><rect x="192" y="448" width="32" height="32" fill="rgba(255,255,255,0)"/><rect x="192" y="480" width="32" height="32" fill="rgba(255,255,255,0.05)"/><rect x="224" y="0" width="32" height="32" fill="rgba(255,255,255,0.05)"/><rect x="224" y="32" width="32" height="32" fill="rgba(255,255,255,0)"/><rect x="224" y="64" width="32" height="32" fill="rgba(255,255,255,0.05)"/><rect x="224" y="96" width="32" height="32" fill="rgba(255,255,255,0)"/><rect x="224" y="128" width="32" height="32" fill="rgba(255,255,255,0.05)"/><rect x="224" y="160" width="32" height="32" fill="rgba(255,255,255,0)"/><rect x="224" y="192" width="32" height="32" fill="rgba(255,255,255,0.05)"/><rect x="224" y="224" width="32" height="32" fill="rgba(255,255,255,0)"/><rect x="224" y="256" width="32" height="32" fill="rgba(255,255,255,0.05)"/><rect x="224" y="288" width="32" height="32" fill="rgba(255,255,255,0)"/><rect x="224" y="320" width="32" height="32" fill="rgba(255,255,255,0.05)"/><rect x="224" y="352" width="32" height="32" fill="rgba(255,255,255,0)"/><rect x="224" y="384" width="32" height="32" fill="rgba(255,255,255,0.05)"/><rect x="224" y="416" width="32" height="32" fill="rgba(255,255,255,0)"/><rect x="224" y="448" width="32" height="32" fill="rgba(255,255,255,0.05)"/><rect x="224" y="480" width="32" height="32" fill="rgba(255,255,255,0)"/><rect x="256" y="0" width="32" height="32" fill="rgba(255,255,255,0)"/><rect x="256" y="32" width="32" height="32" fill="rgba(255,255,255,0.05)"/><rect x="256" y="64" width="32" height="32" fill="rgba(255,255,255,0)"/><rect x="256" y="96" width="32" height="32" fill="rgba(255,255,255,0.05)"/><rect x="256" y="128" width="32" height="32" fill="rgba(255,255,255,0)"/><rect x="256" y="160" width="32" height="32" fill="rgba(255,255,255,0.05)"/><rect x="256" y="192" width="32" height="32" fill="rgba(255,255,255,0)"/><rect x="256" y="224" width="32" height="32" fill="rgba(255,255,255,0.05)"/><rect x="256" y="256" width="32" height="32" fill="rgba(255,255,255,0)"/><rect x="256" y="288" width="32" height="32" fill="rgba(255,255,255,0.05)"/><rect x="256" y="320" width="32" height="32" fill="rgba(255,255,255,0)"/><rect x="256" y="352" width="32" height="32" fill="rgba(255,255,255,0.05)"/><rect x="256" y="384" width="32" height="32" fill="rgba(255,255,255,0)"/><rect x="256" y="416" width="32" height="32" fill="rgba(255,255,255,0.05)"/><rect x="256" y="448" width="32" height="32" fill="rgba(255,255,255,0)"/><rect x="256" y="480" width="32" height="32" fill="rgba(255,255,255,0.05)"/><rect x="288" y="0" width="32" height="32" fill="rgba(255,255,255,0.05)"/><rect x="288" y="32" width="32" height="32" fill="rgba(255,255,255,0)"/><rect x="288" y="64" width="32" height="32" fill="rgba(255,255,255,0.05)"/><rect x="288" y="96" width="32" height="32" fill="rgba(255,255,255,0)"/><rect x="288" y="128" width="32" height="32" fill="rgba(255,255,255,0.05)"/><rect x="288" y="160" width="32" height="32" fill="rgba(255,255,255,0)"/><rect x="288" y="192" width="32" height="32" fill="rgba(255,255,255,0.05)"/><rect x="288" y="224" width="32" height="32" fill="rgba(255,255,255,0)"/><rect x="288" y="256" width="32" height="32" fill="rgba(255,255,255,0.05)"/><rect x="288" y="288" width="32" height="32" fill="rgba(255,255,255,0)"/><rect x="288" y="320" width="32" height="32" fill="rgba(255,255,255,0.05)"/><rect x="288" y="352" width="32" height="32" fill="rgba(255,255,255,0)"/><rect x="288" y="384" width="32" height="32" fill="rgba(255,255,255,0.05)"/><rect x="288" y="416" width="32" height="32" fill="rgba(255,255,255,0)"/><rect x="288" y="448" width="32" height="32" fill="rgba(255,255,255,0.05)"/><rect x="288" y="480" width="32" height="32" fill="rgba(255,255,255,0)"/><rect x="320" y="0" width="32" height="32" fill="rgba(255,255,255,0)"/><rect x="320" y="32" width="32" height="32" fill="rgba(255,255,255,0.05)"/><rect x="320" y="64" width="32" height="32" fill="rgba(255,255,255,0)"/><rect x="320" y="96" width="32" height="32" fill="rgba(255,255,255,0.05)"/><rect x="320" y="128" width="32" height="32" fill="rgba(255,255,255,0)"/><rect x="320" y="160" width="32" height="32" fill="rgba(255,255,255,0.05)"/><rect x="320" y="192" width="32" height="32" fill="rgba(255,255,255,0)"/><rect x="320" y="224" width="32" height="32" fill="rgba(255,255,255,0.05)"/><rect x="320" y="256" width="32" height="32" fill="rgba(255,255,255,0)"/><rect x="320" y="288" width="32" height="32" fill="rgba(255,255,255,0.05)"/><rect x="320" y="320" width="32" height="32" fill="rgba(255,255,255,0)"/><rect x="320" y="352" width="32" height="32" fill="rgba(255,255,255,0.05)"/><rect x="320" y="384" width="32" height="32" fill="rgba(255,255,255,0)"/><rect x="320" y="416" width="32" height="32" fill="rgba(255,255,255,0.05)"/><rect x="320" y="448" width="32" height="32" fill="rgba(255,255,255,0)"/><rect x="320" y="480" width="32" height="32" fill="rgba(255,255,255,0.05)"/><rect x="352" y="0" width="32" height="32" fill="rgba(255,255,255,0.05)"/><rect x="352" y="32" width="32" height="32" fill="rgba(255,255,255,0)"/><rect x="352" y="64" width="32" height="32" fill="rgba(255,255,255,0.05)"/><rect x="352" y="96" width="32" height="32" fill="rgba(255,255,255,0)"/><rect x="352" y="128" width="32" height="32" fill="rgba(255,255,255,0.05)"/><rect x="352" y="160" width="32" height="32" fill="rgba(255,255,255,0)"/><rect x="352" y="192" width="32" height="32" fill="rgba(255,255,255,0.05)"/><rect x="352" y="224" width="32" height="32" fill="rgba(255,255,255,0)"/><rect x="352" y="256" width="32" height="32" fill="rgba(255,255,255,0.05)"/><rect x="352" y="288" width="32" height="32" fill="rgba(255,255,255,0)"/><rect x="352" y="320" width="32" height="32" fill="rgba(255,255,255,0.05)"/><rect x="352" y="352" width="32" height="32" fill="rgba(255,255,255,0)"/><rect x="352" y="384" width="32" height="32" fill="rgba(255,255,255,0.05)"/><rect x="352" y="416" width="32" height="32" fill="rgba(255,255,255,0)"/><rect x="352" y="448" width="32" height="32" fill="rgba(255,255,255,0.05)"/><rect x="352" y="480" width="32" height="32" fill="rgba(255,255,255,0)"/><rect x="384" y="0" width="32" height="32" fill="rgba(255,255,255,0)"/><rect x="384" y="32" width="32" height="32" fill="rgba(255,255,255,0.05)"/><rect x="384" y="64" width="32" height="32" fill="rgba(255,255,255,0)"/><rect x="384" y="96" width="32" height="32" fill="rgba(255,255,255,0.05)"/><rect x="384" y="128" width="32" height="32" fill="rgba(255,255,255,0)"/><rect x="384" y="160" width="32" height="32" fill="rgba(255,255,255,0.05)"/><rect x="384" y="192" width="32" height="32" fill="rgba(255,255,255,0)"/><rect x="384" y="224" width="32" height="32" fill="rgba(255,255,255,0.05)"/><rect x="384" y="256" width="32" height="32" fill="rgba(255,255,255,0)"/><rect x="384" y="288" width="32" height="32" fill="rgba(255,255,255,0.05)"/><rect x="384" y="320" width="32" height="32" fill="rgba(255,255,255,0)"/><rect x="384" y="352" width="32" height="32" fill="rgba(255,255,255,0.05)"/><rect x="384" y="384" width="32" height="32" fill="rgba(255,255,255,0)"/><rect x="384" y="416" width="32" height="32" fill="rgba(255,255,255,0.05)"/><rect x="384" y="448" width="32" height="32" fill="rgba(255,255,255,0)"/><rect x="384" y="480" width="32" height="32" fill="rgba(255,255,255,0.05)"/><rect x="416" y="0" width="32" height="32" fill="rgba(255,255,255,0.05)"/><rect x="416" y="32" width="32" height="32" fill="rgba(255,255,255,0)"/><rect x="416" y="64" width="32" height="32" fill="rgba(255,255,255,0.05)"/><rect x="416" y="96" width="32" height="32" fill="rgba(255,255,255,0)"/><rect x="416" y="128" width="32" height="32" fill="rgba(255,255,255,0.05)"/><rect x="416" y="160" width="32" height="32" fill="rgba(255,255,255,0)"/><rect x="416" y="192" width="32" height="32" fill="rgba(255,255,255,0.05)"/><rect x="416" y="224" width="32" height="32" fill="rgba(255,255,255,0)"/><rect x="416" y="256" width="32" height="32" fill="rgba(255,255,255,0.05)"/><rect x="416" y="288" width="32" height="32" fill="rgba(255,255,255,0)"/><rect x="416" y="320" width="32" height="32" fill="rgba(255,255,255,0.05)"/><rect x="416" y="352" width="32" height="32" fill="rgba(255,255,255,0)"/><rect x="416" y="384" width="32" height="32" fill="rgba(255,255,255,0.05)"/><rect x="416" y="416" width="32" height="32" fill="rgba(255,255,255,0)"/><rect x="416" y="448" width="32" height="32" fill="rgba(255,255,255,0.05)"/><rect x="416" y="480" width="32" height="32" fill="rgba(255,255,255,0)"/><rect x="448" y="0" width="32" height="32" fill="rgba(255,255,255,0)"/><rect x="448" y="32" width="32" height="32" fill="rgba(255,255,255,0.05)"/><rect x="448" y="64" width="32" height="32" fill="rgba(255,255,255,0)"/><rect x="448" y="96" width="32" height="32" fill="rgba(255,255,255,0.05)"/><rect x="448" y="128" width="32" height="32" fill="rgba(255,255,255,0)"/><rect x="448" y="160" width="32" height="32" fill="rgba(255,255,255,0.05)"/><rect x="448" y="192" width="32" height="32" fill="rgba(255,255,255,0)"/><rect x="448" y="224" width="32" height="32" fill="rgba(255,255,255,0.05)"/><rect x="448" y="256" width="32" height="32" fill="rgba(255,255,255,0)"/><rect x="448" y="288" width="32" height="32" fill="rgba(255,255,255,0.05)"/><rect x="448" y="320" width="32" height="32" fill="rgba(255,255,255,0)"/><rect x="448" y="352" width="32" height="32" fill="rgba(255,255,255,0.05)"/><rect x="448" y="384" width="32" height="32" fill="rgba(255,255,255,0)"/><rect x="448" y="416" width="32" height="32" fill="rgba(255,255,255,0.05)"/><rect x="448" y="448" width="32" height="32" fill="rgba(255,255,255,0)"/><rect x="448" y="480" width="32" height="32" fill="rgba(255,255,255,0.05)"/><rect x="480" y="0" width="32" height="32" fill="rgba(255,255,255,0.05)"/><rect x="480" y="32" width="32" height="32" fill="rgba(255,255,255,0)"/><rect x="480" y="64" width="32" height="32" fill="rgba(255,255,255,0.05)"/><rect x="480" y="96" width="32" height="32" fill="rgba(255,255,255,0)"/><rect x="480" y="128" width="32" height="32" fill="rgba(255,255,255,0.05)"/><rect x="480" y="160" width="32" height="32" fill="rgba(255,255,255,0)"/><rect x="480" y="192" width="32" height="32" fill="rgba(255,255,255,0.05)"/><rect x="480" y="224" width="32" height="32" fill="rgba(255,255,255,0)"/><rect x="480" y="256" width="32" height="32" fill="rgba(255,255,255,0.05)"/><rect x="480" y="288" width="32" height="32" fill="rgba(255,255,255,0)"/><rect x="480" y="320" width="32" height="32" fill="rgba(255,255,255,0.05)"/><rect x="480" y="352" width="32" height="32" fill="rgba(255,255,255,0)"/><rect x="480" y="384" width="32" height="32" fill="rgba(255,255,255,0.05)"/><rect x="480" y="416" width="32" height="32" fill="rgba(255,255,255,0)"/><rect x="480" y="448" width="32" height="32" fill="rgba(255,255,255,0.05)"/><rect x="480" y="480" width="32" height="32" fill="rgba(255,255,255,0)"/>
  <text x="256" y="222" font-family="Inter, sans-serif" font-size="30" font-weight="800" fill="#fff" text-anchor="middle" letter-spacing="2">LRGI</text>
  <text x="256" y="262" font-family="Inter, sans-serif" font-size="18" fill="rgba(255,255,255,0.85)" text-anchor="middle">FLUX-Kontext output</text>
  <text x="256" y="298" font-family="Inter, sans-serif" font-size="14" fill="rgba(255,255,255,0.65)" text-anchor="middle">512 × 512 · contains generation artifacts</text>
</svg>